<svg width="123" height="40" viewBox="0 0 123 40" fill="none" xmlns="http://www.w3.org/2000/svg">
<path d="M103 39.9963H20.6892C9.64318 39.9963 0.689178 31.0423 0.689178 20C0.689178 8.95771 9.64318 0 20.6892 0H103.004C114.046 0 123 8.95401 123 20C123 31.046 114.046 40 103 40" fill="#001632"/>
<path d="M21.9281 25.9904L20.4926 27.4258C20.1625 27.7559 19.6284 27.7559 19.2945 27.4258L12.4845 20.6157C12.1543 20.2856 12.1543 19.7478 12.4845 19.4177L19.3428 12.5594C19.6729 12.2292 20.2107 12.2292 20.5408 12.5594L21.9763 13.9948C22.3064 14.3249 22.3064 14.8628 21.9763 15.1892L21.8094 15.3561L17.7515 19.414C17.4214 19.7441 17.4214 20.2819 17.7515 20.612L21.9244 24.796C22.2582 25.1261 22.2582 25.6602 21.9244 25.9904" fill="#65DB78"/>
<path d="M21.0601 29.1691L22.4844 30.5972C22.8146 30.9273 23.3524 30.9273 23.6825 30.5972L23.7307 30.5452L33.7159 20.5601C34.046 20.23 34.046 19.6958 33.7159 19.3657L23.7307 9.38055C23.4006 9.05044 22.8665 9.05044 22.5364 9.38055L21.1083 10.8086C20.7819 11.1387 20.7819 11.6728 21.1083 12.003L28.2485 19.1395L28.4748 19.3657C28.8049 19.6958 28.8049 20.23 28.4748 20.5601L21.0564 27.9785C20.7263 28.3086 20.7263 28.8427 21.0564 29.1728" fill="white"/>
<path d="M52.9443 20.0927C52.9443 22.8153 50.971 24.9184 48.5786 24.9184C47.3546 24.9184 46.4569 24.4955 45.8561 23.8019V24.6587H43.115V11.8731H45.8561V16.3872C46.4607 15.6936 47.3546 15.2745 48.5786 15.2745C50.971 15.2745 52.9443 17.3739 52.9443 20.0964M50.2032 20.0964C50.2032 18.7277 49.2908 17.8672 48.0296 17.8672C46.7685 17.8672 45.8561 18.724 45.8561 20.0964C45.8561 21.4688 46.7685 22.3257 48.0296 22.3257C49.2908 22.3257 50.2032 21.4688 50.2032 20.0964Z" fill="white"/>
<path d="M54.0386 20.0927C54.0386 17.3702 56.1974 15.2708 58.8791 15.2708C61.5609 15.2708 63.7196 17.3702 63.7196 20.0927C63.7196 22.8153 61.5646 24.9184 58.8791 24.9184C56.1937 24.9184 54.0386 22.8153 54.0386 20.0927ZM60.9785 20.0927C60.9785 18.7945 60.0661 17.9377 58.8791 17.9377C57.6922 17.9377 56.7797 18.7945 56.7797 20.0927C56.7797 21.3909 57.6922 22.2478 58.8791 22.2478C60.0661 22.2478 60.9785 21.3909 60.9785 20.0927Z" fill="white"/>
<path d="M64.8174 20.0927C64.8174 17.3702 66.9725 15.2708 69.6579 15.2708C72.3434 15.2708 74.4984 17.3702 74.4984 20.0927C74.4984 22.8153 72.3434 24.9184 69.6579 24.9184C66.9725 24.9184 64.8174 22.8153 64.8174 20.0927ZM71.7573 20.0927C71.7573 18.7945 70.8449 17.9377 69.6579 17.9377C68.471 17.9377 67.5585 18.7945 67.5585 20.0927C67.5585 21.3909 68.4747 22.2478 69.6579 22.2478C70.8412 22.2478 71.7573 21.3909 71.7573 20.0927Z" fill="white"/>
<path d="M78.79 11.3279H76.0489V24.6624H78.79V11.3279Z" fill="white"/>
<path d="M85.437 22.4703C86.1862 22.4703 86.8242 22.1773 87.1914 21.7767L89.3836 23.0378C88.4859 24.2804 87.1358 24.9184 85.3999 24.9184C82.2767 24.9184 80.3405 22.8153 80.3405 20.0927C80.3405 17.3702 82.3138 15.2708 85.1996 15.2708C87.8665 15.2708 89.8398 17.3331 89.8398 20.0927C89.8398 20.4785 89.8027 20.842 89.7285 21.1906H83.2448C83.5898 22.1402 84.4281 22.4703 85.4333 22.4703M87.1135 19.1432C86.8205 18.0823 86.0008 17.7003 85.1773 17.7003C84.1351 17.7003 83.4414 18.2121 83.1855 19.1432H87.1135Z" fill="white"/>
<path d="M100.671 15.5267V24.6587H97.9296V23.8019C97.3287 24.4955 96.4311 24.9184 95.2071 24.9184C92.8146 24.9184 90.8414 22.8153 90.8414 20.0927C90.8414 17.3702 92.8146 15.2708 95.2071 15.2708C96.4274 15.2708 97.325 15.6899 97.9296 16.3835V15.523H100.671V15.5267ZM97.9296 20.0927C97.9296 18.724 97.0172 17.8635 95.756 17.8635C94.4949 17.8635 93.5825 18.7203 93.5825 20.0927C93.5825 21.4651 94.4949 22.3219 95.756 22.3219C97.0172 22.3219 97.9296 21.4651 97.9296 20.0927Z" fill="white"/>
<path d="M111.45 19.0542V24.6625H108.708V19.4548C108.708 18.3198 107.993 17.7931 107.121 17.7931C106.116 17.7931 105.418 18.3754 105.418 19.6736V24.6625H102.677V15.5304H105.418V16.3873C105.912 15.7122 106.824 15.2745 108.03 15.2745C109.873 15.2745 111.446 16.5876 111.446 19.0542" fill="white"/>
</svg>
